<?xml version="1.0" encoding="UTF-8" standalone="no" ?>
<!DOCTYPE svg PUBLIC "-//W3C//DTD SVG 1.1//EN" "http://www.w3.org/Graphics/SVG/1.1/DTD/svg11.dtd">
<svg xmlns="http://www.w3.org/2000/svg" xmlns:xlink="http://www.w3.org/1999/xlink" version="1.1" width="1080" height="1080" viewBox="0 0 1080 1080" xml:space="preserve">
<desc>Created with Fabric.js 5.2.4</desc>
<defs>
</defs>
<g transform="matrix(1 0 0 1 540 540)" id="49e84600-fa56-4344-9232-8bc2d80195eb"  >
<rect style="stroke: none; stroke-width: 1; stroke-dasharray: none; stroke-linecap: butt; stroke-dashoffset: 0; stroke-linejoin: miter; stroke-miterlimit: 4; fill: rgb(43,132,234); fill-rule: nonzero; opacity: 1;" vector-effect="non-scaling-stroke"  x="-540" y="-540" rx="0" ry="0" width="1080" height="1080" />
</g>
<g transform="matrix(1 0 0 1 540 540)" id="7154f190-ec09-4b92-b83e-273dedd01982"  >
</g>
<g transform="matrix(1 0 0 1 540 540)"  >
<g style="" vector-effect="non-scaling-stroke"   >
		<g transform="matrix(1 0 0 1 2.75 -3.44)"  >
<path style="stroke: none; stroke-width: 1; stroke-dasharray: none; stroke-linecap: butt; stroke-dashoffset: 0; stroke-linejoin: miter; stroke-miterlimit: 4; fill: rgb(255,255,255); fill-rule: evenodd; opacity: 1;" vector-effect="non-scaling-stroke"  transform=" translate(-25.44, -17.88)" d="M 14.0933 17.875 C 14.0933 14.2679 17.0175 11.3438 20.6246 11.3438 L 30.2496 11.3438 C 33.8567 11.3438 36.7808 14.2679 36.7808 17.875 C 36.7808 21.4821 33.8567 24.4062 30.2496 24.4062 L 20.6246 24.4062 C 17.0175 24.4062 14.0933 21.4821 14.0933 17.875 Z M 20.6246 13.4062 C 18.1566 13.4062 16.1558 15.407 16.1558 17.875 C 16.1558 20.343 18.1566 22.3438 20.6246 22.3438 L 30.2496 22.3438 C 32.7176 22.3438 34.7183 20.343 34.7183 17.875 C 34.7183 15.407 32.7176 13.4062 30.2496 13.4062 L 20.6246 13.4062 Z" stroke-linecap="round" />
</g>
		<g transform="matrix(1 0 0 1 -2.75 3.44)"  >
<path style="stroke: none; stroke-width: 1; stroke-dasharray: none; stroke-linecap: butt; stroke-dashoffset: 0; stroke-linejoin: miter; stroke-miterlimit: 4; fill: rgb(255,255,255); fill-rule: evenodd; opacity: 1;" vector-effect="non-scaling-stroke"  transform=" translate(-19.94, -24.75)" d="M 15.7001 18.2188 L 15.1246 18.2188 C 11.5175 18.2188 8.59332 21.1429 8.59332 24.75 C 8.59332 28.3571 11.5175 31.2812 15.1246 31.2812 L 24.7496 31.2812 C 28.3567 31.2812 31.2808 28.3571 31.2808 24.75 C 31.2808 24.2892 31.2331 23.8395 31.1423 23.4056 C 30.8924 23.4529 30.6345 23.4776 30.3708 23.4776 L 29.0346 23.4776 C 29.1541 23.8809 29.2183 24.3079 29.2183 24.75 C 29.2183 27.218 27.2176 29.2188 24.7496 29.2188 L 15.1246 29.2188 C 12.6566 29.2188 10.6558 27.218 10.6558 24.75 C 10.6558 22.282 12.6566 20.2812 15.1246 20.2812 L 15.805 20.2812 C 15.7364 19.9828 15.7001 19.6719 15.7001 19.3526 L 15.7001 18.2188 Z" stroke-linecap="round" />
</g>
</g>
</g>
<g transform="matrix(NaN NaN NaN NaN 0 0)"  >
<g style=""   >
</g>
</g>
<g transform="matrix(NaN NaN NaN NaN 0 0)"  >
<g style=""   >
</g>
</g>
</svg>